# xmcd
#
# Track frame offsets: 
#        150
#        15450
#        29957
#        46687
#        60297
#        73247
#        88462
#        114562
#        130015
#        144490
#        164937
#        186460
#        205275
#
# Disc length: 4202 seconds
#
# Revision: 1
# Processed by: cddbd v1.5.2PL0 Copyright (c) Steve Scherf et al.
# Submitted via: ExactAudioCopy v0.95b4
#
DISCID=c710680d
DTITLE=Ventura - Pa Capona
DYEAR=2007
DGENRE=Alternative
TTITLE0=Back To Sender
TTITLE1=The Question
TTITLE2=I Keep Starting
TTITLE3=The Colour Of My Dope
TTITLE4=Kidneys
TTITLE5=Everything
TTITLE6=Limits
TTITLE7=Small
TTITLE8=I Keep Position
TTITLE9=Violent, All The Tme
TTITLE10=Let Yourself Go
TTITLE11=Thoughts And Speeches
TTITLE12=Ovens
EXTD=
EXTT0=
EXTT1=
EXTT2=
EXTT3=
EXTT4=
EXTT5=
EXTT6=
EXTT7=
EXTT8=
EXTT9=
EXTT10=
EXTT11=
EXTT12=
PLAYORDER=
